<?xml version="1.0" encoding="UTF-8" standalone="no"?>
<!-- Created with Inkscape (http://www.inkscape.org/) -->

<svg
   xmlns:dc="http://purl.org/dc/elements/1.1/"
   xmlns:cc="http://creativecommons.org/ns#"
   xmlns:rdf="http://www.w3.org/1999/02/22-rdf-syntax-ns#"
   xmlns:svg="http://www.w3.org/2000/svg"
   xmlns="http://www.w3.org/2000/svg"
   xmlns:sodipodi="http://sodipodi.sourceforge.net/DTD/sodipodi-0.dtd"
   xmlns:inkscape="http://www.inkscape.org/namespaces/inkscape"
   width="279.95859"
   height="175.293"
   id="svg2"
   version="1.1"
   inkscape:version="0.48.4 r9939"
   sodipodi:docname="basic-contraction-02.svg">
  <defs
     id="defs4">
    <marker
       inkscape:stockid="TriangleOutM"
       orient="auto"
       refY="0"
       refX="0"
       id="TriangleOutM"
       style="overflow:visible">
      <path
         id="path4511"
         d="m 5.77,0 -8.65,5 0,-10 8.65,5 z"
         style="fill-rule:evenodd;stroke:#000000;stroke-width:1pt"
         transform="scale(0.4,0.4)"
         inkscape:connector-curvature="0" />
    </marker>
    <marker
       inkscape:stockid="Arrow1Mend"
       orient="auto"
       refY="0"
       refX="0"
       id="Arrow1Mend"
       style="overflow:visible">
      <path
         id="path4375"
         d="M 0,0 5,-5 -12.5,0 5,5 0,0 z"
         style="fill-rule:evenodd;stroke:#000000;stroke-width:1pt"
         transform="matrix(-0.4,0,0,-0.4,-4,0)"
         inkscape:connector-curvature="0" />
    </marker>
    <marker
       inkscape:stockid="Arrow1Lend"
       orient="auto"
       refY="0"
       refX="0"
       id="Arrow1Lend"
       style="overflow:visible">
      <path
         id="path4369"
         d="M 0,0 5,-5 -12.5,0 5,5 0,0 z"
         style="fill-rule:evenodd;stroke:#000000;stroke-width:1pt"
         transform="matrix(-0.8,0,0,-0.8,-10,0)"
         inkscape:connector-curvature="0" />
    </marker>
  </defs>
  <sodipodi:namedview
     id="base"
     pagecolor="#ffffff"
     bordercolor="#666666"
     borderopacity="1.0"
     inkscape:pageopacity="0.0"
     inkscape:pageshadow="2"
     inkscape:zoom="1.4"
     inkscape:cx="-18.935147"
     inkscape:cy="158.35999"
     inkscape:document-units="px"
     inkscape:current-layer="layer1"
     showgrid="false"
     inkscape:window-width="1920"
     inkscape:window-height="1051"
     inkscape:window-x="0"
     inkscape:window-y="0"
     inkscape:window-maximized="1"
     fit-margin-top="0"
     fit-margin-left="0"
     fit-margin-right="0"
     fit-margin-bottom="0" />
  <metadata
     id="metadata7">
    <rdf:RDF>
      <cc:Work
         rdf:about="">
        <dc:format>image/svg+xml</dc:format>
        <dc:type
           rdf:resource="http://purl.org/dc/dcmitype/StillImage" />
        <dc:title />
      </cc:Work>
    </rdf:RDF>
  </metadata>
  <g
     inkscape:label="Layer 1"
     inkscape:groupmode="layer"
     id="layer1"
     transform="translate(-172.59239,-92.934886)">
    <path
       inkscape:connector-curvature="0"
       id="path4337"
       d="M 301.06497,256.05846 381.7013,223.44388"
       style="fill:none;stroke:#808080;stroke-width:2.70000004999999987;stroke-linecap:butt;stroke-linejoin:miter;stroke-miterlimit:4;stroke-opacity:1;stroke-dasharray:none"
       sodipodi:nodetypes="cc" />
    <path
       sodipodi:nodetypes="cc"
       style="fill:none;stroke:#808080;stroke-width:2.70000004999999987;stroke-linecap:butt;stroke-linejoin:miter;stroke-miterlimit:4;stroke-opacity:1;stroke-dasharray:none"
       d="M 301.06497,256.05846 245.27273,194.87245"
       id="path3939"
       inkscape:connector-curvature="0" />
    <path
       inkscape:connector-curvature="0"
       id="path3943"
       d="m 442.01205,151.42355 -50.53843,67.05622"
       style="fill:none;stroke:#000000;stroke-width:2.70000005;stroke-linecap:butt;stroke-linejoin:miter;stroke-miterlimit:4;stroke-opacity:1;stroke-dasharray:none"
       sodipodi:nodetypes="cc" />
    <path
       sodipodi:nodetypes="cc"
       style="fill:none;stroke:#000000;stroke-width:2.70000005;stroke-linecap:butt;stroke-linejoin:miter;stroke-miterlimit:4;stroke-opacity:1;stroke-dasharray:none"
       d="M 385.09581,218.65307 336.4254,125.45186"
       id="path3947"
       inkscape:connector-curvature="0" />
    <path
       transform="matrix(0.51442109,0,0,0.51442109,142.73795,-22.203799)"
       d="m 392.44427,277.5752 c 0,11.15784 -9.04522,20.20305 -20.20306,20.20305 -11.15784,0 -20.20306,-9.04521 -20.20306,-20.20305 0,-11.15784 9.04522,-20.20306 20.20306,-20.20306 11.15784,0 20.20306,9.04522 20.20306,20.20306 z"
       sodipodi:ry="20.203056"
       sodipodi:rx="20.203056"
       sodipodi:cy="277.5752"
       sodipodi:cx="372.24121"
       id="path3945"
       style="fill:#ffaf00;fill-opacity:1;stroke:#000000;stroke-width:1.20000005;stroke-miterlimit:4;stroke-opacity:1;stroke-dasharray:none;stroke-dashoffset:0"
       sodipodi:type="arc" />
    <path
       transform="matrix(0.51442109,0,0,0.51442109,250.36741,7.7454433)"
       d="m 392.44427,277.5752 c 0,11.15784 -9.04522,20.20305 -20.20306,20.20305 -11.15784,0 -20.20306,-9.04521 -20.20306,-20.20305 0,-11.15784 9.04522,-20.20306 20.20306,-20.20306 11.15784,0 20.20306,9.04522 20.20306,20.20306 z"
       sodipodi:ry="20.203056"
       sodipodi:rx="20.203056"
       sodipodi:cy="277.5752"
       sodipodi:cx="372.24121"
       id="path3949"
       style="fill:#ffaf00;fill-opacity:1;stroke:#000000;stroke-width:1.20000005;stroke-miterlimit:4;stroke-opacity:1;stroke-dasharray:none;stroke-dashoffset:0"
       sodipodi:type="arc" />
    <path
       sodipodi:type="arc"
       style="fill:#8b8474;fill-opacity:1;stroke:#000000;stroke-width:1.20000005;stroke-miterlimit:4;stroke-opacity:1;stroke-dasharray:none;stroke-dashoffset:0"
       id="path3963"
       sodipodi:cx="372.24121"
       sodipodi:cy="277.5752"
       sodipodi:rx="20.203056"
       sodipodi:ry="20.203056"
       d="m 392.44427,277.5752 c 0,11.15784 -9.04522,20.20305 -20.20306,20.20305 -11.15784,0 -20.20306,-9.04521 -20.20306,-20.20305 0,-11.15784 9.04522,-20.20306 20.20306,-20.20306 11.15784,0 20.20306,9.04522 20.20306,20.20306 z"
       transform="matrix(0.51442109,0,0,0.51442109,113.35326,114.7375)" />
    <path
       inkscape:connector-curvature="0"
       id="path4339"
       d="M 383.92212,221.05846 248.84416,192.0153"
       style="fill:#ff0000;fill-opacity:1;stroke:#ff0000;stroke-width:2.70000005;stroke-linecap:butt;stroke-linejoin:miter;stroke-miterlimit:4;stroke-opacity:1;stroke-dasharray:none"
       sodipodi:nodetypes="cc" />
    <path
       sodipodi:type="arc"
       style="fill:#ffaf00;fill-opacity:1;stroke:#000000;stroke-width:1.20000005;stroke-miterlimit:4;stroke-opacity:1;stroke-dasharray:none;stroke-dashoffset:0"
       id="path3828"
       sodipodi:cx="372.24121"
       sodipodi:cy="277.5752"
       sodipodi:rx="20.203056"
       sodipodi:ry="20.203056"
       d="m 392.44427,277.5752 c 0,11.15784 -9.04522,20.20305 -20.20306,20.20305 -11.15784,0 -20.20306,-9.04521 -20.20306,-20.20305 0,-11.15784 9.04522,-20.20306 20.20306,-20.20306 11.15784,0 20.20306,9.04522 20.20306,20.20306 z"
       transform="matrix(0.51442109,0,0,0.51442109,54.785436,48.181281)" />
    <path
       sodipodi:type="arc"
       style="fill:#009cff;fill-opacity:1;stroke:#000000;stroke-width:1.20000005;stroke-miterlimit:4;stroke-opacity:1;stroke-dasharray:none;stroke-dashoffset:0"
       id="path3961"
       sodipodi:cx="372.24121"
       sodipodi:cy="277.5752"
       sodipodi:rx="20.203056"
       sodipodi:ry="20.203056"
       d="m 392.44427,277.5752 c 0,11.15784 -9.04522,20.20305 -20.20306,20.20305 -11.15784,0 -20.20306,-9.04521 -20.20306,-20.20305 0,-11.15784 9.04522,-20.20306 20.20306,-20.20306 11.15784,0 20.20306,9.04522 20.20306,20.20306 z"
       transform="matrix(0.51442109,0,0,0.51442109,194.71365,79.014513)" />
    <path
       style="fill:none;stroke:#000000;stroke-width:6.19999981;stroke-linecap:butt;stroke-linejoin:miter;stroke-miterlimit:4;stroke-opacity:1;stroke-dasharray:none;marker-end:url(#TriangleOutM)"
       d="M -32.857143,218.338 -30.714286,61.909429"
       id="path4360"
       inkscape:connector-curvature="0"
       transform="translate(235.5723,48.461321)"
       sodipodi:nodetypes="cc" />
    <text
       xml:space="preserve"
       style="font-size:18.15412331px;font-style:normal;font-weight:normal;line-height:125%;letter-spacing:0px;word-spacing:0px;fill:#000000;fill-opacity:1;stroke:none;font-family:Sans"
       x="-262.50595"
       y="186.38527"
       id="text5548"
       sodipodi:linespacing="125%"
       transform="matrix(0,-1,1,0,0,0)"><tspan
         sodipodi:role="line"
         id="tspan5550"
         x="-262.50595"
         y="186.38527">Contraction Order</tspan></text>
    <text
       inkscape:transform-center-y="55.053314"
       inkscape:transform-center-x="-14.647212"
       xml:space="preserve"
       style="font-size:15.92069149px;font-style:normal;font-weight:normal;line-height:125%;letter-spacing:0px;word-spacing:0px;fill:#000000;fill-opacity:1;stroke:none;font-family:Sans"
       x="308.81641"
       y="201.17387"
       id="text3977"
       sodipodi:linespacing="125%"><tspan
         sodipodi:role="line"
         id="tspan3979"
         x="308.81641"
         y="201.17387">2</tspan></text>
  </g>
</svg>
