<?xml version="1.0" encoding="UTF-8" standalone="no"?>
<!-- Created with Inkscape (http://www.inkscape.org/) -->

<svg
   xmlns:dc="http://purl.org/dc/elements/1.1/"
   xmlns:cc="http://creativecommons.org/ns#"
   xmlns:rdf="http://www.w3.org/1999/02/22-rdf-syntax-ns#"
   xmlns:svg="http://www.w3.org/2000/svg"
   xmlns="http://www.w3.org/2000/svg"
   xmlns:sodipodi="http://sodipodi.sourceforge.net/DTD/sodipodi-0.dtd"
   xmlns:inkscape="http://www.inkscape.org/namespaces/inkscape"
   width="363.44418"
   height="214.96812"
   id="svg2"
   version="1.1"
   inkscape:version="0.48.4 r9939"
   sodipodi:docname="basic-contraction-03.svg">
  <defs
     id="defs4">
    <marker
       inkscape:stockid="TriangleOutM"
       orient="auto"
       refY="0"
       refX="0"
       id="TriangleOutM"
       style="overflow:visible">
      <path
         id="path4511"
         d="m 5.77,0 -8.65,5 0,-10 8.65,5 z"
         style="fill-rule:evenodd;stroke:#000000;stroke-width:1pt"
         transform="scale(0.4,0.4)"
         inkscape:connector-curvature="0" />
    </marker>
    <marker
       inkscape:stockid="Arrow1Mend"
       orient="auto"
       refY="0"
       refX="0"
       id="Arrow1Mend"
       style="overflow:visible">
      <path
         id="path4375"
         d="M 0,0 5,-5 -12.5,0 5,5 0,0 z"
         style="fill-rule:evenodd;stroke:#000000;stroke-width:1pt"
         transform="matrix(-0.4,0,0,-0.4,-4,0)"
         inkscape:connector-curvature="0" />
    </marker>
    <marker
       inkscape:stockid="Arrow1Lend"
       orient="auto"
       refY="0"
       refX="0"
       id="Arrow1Lend"
       style="overflow:visible">
      <path
         id="path4369"
         d="M 0,0 5,-5 -12.5,0 5,5 0,0 z"
         style="fill-rule:evenodd;stroke:#000000;stroke-width:1pt"
         transform="matrix(-0.8,0,0,-0.8,-10,0)"
         inkscape:connector-curvature="0" />
    </marker>
  </defs>
  <sodipodi:namedview
     id="base"
     pagecolor="#ffffff"
     bordercolor="#666666"
     borderopacity="1.0"
     inkscape:pageopacity="0.0"
     inkscape:pageshadow="2"
     inkscape:zoom="1.4"
     inkscape:cx="56.561004"
     inkscape:cy="211.80379"
     inkscape:document-units="px"
     inkscape:current-layer="layer1"
     showgrid="false"
     inkscape:window-width="1920"
     inkscape:window-height="1051"
     inkscape:window-x="0"
     inkscape:window-y="0"
     inkscape:window-maximized="1"
     fit-margin-top="0"
     fit-margin-left="0"
     fit-margin-right="0"
     fit-margin-bottom="0" />
  <metadata
     id="metadata7">
    <rdf:RDF>
      <cc:Work
         rdf:about="">
        <dc:format>image/svg+xml</dc:format>
        <dc:type
           rdf:resource="http://purl.org/dc/dcmitype/StillImage" />
        <dc:title></dc:title>
      </cc:Work>
    </rdf:RDF>
  </metadata>
  <g
     inkscape:label="Layer 1"
     inkscape:groupmode="layer"
     id="layer1"
     transform="translate(-97.09624,-106.70354)">
    <path
       inkscape:connector-curvature="0"
       id="path3943"
       d="m 245.58348,219.28069 -131.967,-57.94378"
       style="fill:none;stroke:#000000;stroke-width:2.70000005;stroke-linecap:butt;stroke-linejoin:miter;stroke-miterlimit:4;stroke-opacity:1;stroke-dasharray:none"
       sodipodi:nodetypes="cc" />
    <path
       sodipodi:nodetypes="cc"
       style="fill:none;stroke:#000000;stroke-width:2.70000005;stroke-linecap:butt;stroke-linejoin:miter;stroke-miterlimit:4;stroke-opacity:1;stroke-dasharray:none"
       d="m 170.8101,259.36736 73.47244,-34.62979"
       id="path3947"
       inkscape:connector-curvature="0" />
    <path
       transform="matrix(0.51442109,0,0,0.51442109,56.309378,77.796201)"
       d="m 392.44427,277.5752 c 0,11.15784 -9.04522,20.20305 -20.20306,20.20305 -11.15784,0 -20.20306,-9.04521 -20.20306,-20.20305 0,-11.15784 9.04522,-20.20306 20.20306,-20.20306 11.15784,0 20.20306,9.04522 20.20306,20.20306 z"
       sodipodi:ry="20.203056"
       sodipodi:rx="20.203056"
       sodipodi:cy="277.5752"
       sodipodi:cx="372.24121"
       id="path3945"
       style="fill:#ffaf00;fill-opacity:1;stroke:#000000;stroke-width:1.20000005;stroke-miterlimit:4;stroke-opacity:1;stroke-dasharray:none;stroke-dashoffset:0"
       sodipodi:type="arc" />
    <path
       inkscape:connector-curvature="0"
       id="path5575"
       d="M 266.52438,312.93879 172.13969,264.73758"
       style="fill:none;stroke:#000000;stroke-width:2.70000005;stroke-linecap:butt;stroke-linejoin:miter;stroke-miterlimit:4;stroke-opacity:1;stroke-dasharray:none"
       sodipodi:nodetypes="cc" />
    <path
       sodipodi:nodetypes="cc"
       style="fill:none;stroke:#000000;stroke-width:2.70000005;stroke-linecap:butt;stroke-linejoin:miter;stroke-miterlimit:4;stroke-opacity:1;stroke-dasharray:none"
       d="M 169.38153,257.93878 105.71112,163.309"
       id="path5577"
       inkscape:connector-curvature="0" />
    <path
       sodipodi:type="arc"
       style="fill:#ffaf00;fill-opacity:1;stroke:#000000;stroke-width:1.20000005;stroke-miterlimit:4;stroke-opacity:1;stroke-dasharray:none;stroke-dashoffset:0"
       id="path5573"
       sodipodi:cx="372.24121"
       sodipodi:cy="277.5752"
       sodipodi:rx="20.203056"
       sodipodi:ry="20.203056"
       d="m 392.44427,277.5752 c 0,11.15784 -9.04522,20.20305 -20.20306,20.20305 -11.15784,0 -20.20306,-9.04521 -20.20306,-20.20305 0,-11.15784 9.04522,-20.20306 20.20306,-20.20306 11.15784,0 20.20306,9.04522 20.20306,20.20306 z"
       transform="matrix(0.51442109,0,0,0.51442109,-83.690622,18.510487)" />
    <path
       sodipodi:type="arc"
       style="fill:#009cff;fill-opacity:1;stroke:#000000;stroke-width:1.20000005;stroke-miterlimit:4;stroke-opacity:1;stroke-dasharray:none;stroke-dashoffset:0"
       id="path3961"
       sodipodi:cx="372.24121"
       sodipodi:cy="277.5752"
       sodipodi:rx="20.203056"
       sodipodi:ry="20.203056"
       d="m 392.44427,277.5752 c 0,11.15784 -9.04522,20.20305 -20.20306,20.20305 -11.15784,0 -20.20306,-9.04521 -20.20306,-20.20305 0,-11.15784 9.04522,-20.20306 20.20306,-20.20306 11.15784,0 20.20306,9.04522 20.20306,20.20306 z"
       transform="matrix(0.51442109,0,0,0.51442109,-23.143493,117.58595)" />
    <path
       sodipodi:nodetypes="cc"
       style="fill:none;stroke:#000000;stroke-width:2.70000005;stroke-linecap:butt;stroke-linejoin:miter;stroke-miterlimit:4;stroke-opacity:1;stroke-dasharray:none"
       d="M 414.86919,119.99497 270.04505,317.76548"
       id="path5579"
       inkscape:connector-curvature="0" />
    <path
       sodipodi:type="arc"
       style="fill:#ffaf00;fill-opacity:1;stroke:#000000;stroke-width:1.20000005;stroke-miterlimit:4;stroke-opacity:1;stroke-dasharray:none;stroke-dashoffset:0"
       id="path3828"
       sodipodi:cx="372.24121"
       sodipodi:cy="277.5752"
       sodipodi:rx="20.203056"
       sodipodi:ry="20.203056"
       d="m 392.44427,277.5752 c 0,11.15784 -9.04522,20.20305 -20.20306,20.20305 -11.15784,0 -20.20306,-9.04521 -20.20306,-20.20305 0,-11.15784 9.04522,-20.20306 20.20306,-20.20306 11.15784,0 20.20306,9.04522 20.20306,20.20306 z"
       transform="matrix(0.51442109,0,0,0.51442109,78.356865,168.18128)" />
    <path
       inkscape:connector-curvature="0"
       id="path5583"
       d="m 414.86919,119.99497 33.033,164.19908"
       style="fill:none;stroke:#000000;stroke-width:2.70000005;stroke-linecap:butt;stroke-linejoin:miter;stroke-miterlimit:4;stroke-opacity:1;stroke-dasharray:none"
       sodipodi:nodetypes="cc" />
    <path
       transform="matrix(0.51442109,0,0,0.51442109,222.64258,-25.390146)"
       d="m 392.44427,277.5752 c 0,11.15784 -9.04522,20.20305 -20.20306,20.20305 -11.15784,0 -20.20306,-9.04521 -20.20306,-20.20305 0,-11.15784 9.04522,-20.20306 20.20306,-20.20306 11.15784,0 20.20306,9.04522 20.20306,20.20306 z"
       sodipodi:ry="20.203056"
       sodipodi:rx="20.203056"
       sodipodi:cy="277.5752"
       sodipodi:cx="372.24121"
       id="path5571"
       style="fill:#ffaf00;fill-opacity:1;stroke:#000000;stroke-width:1.20000005;stroke-miterlimit:4;stroke-opacity:1;stroke-dasharray:none;stroke-dashoffset:0"
       sodipodi:type="arc" />
    <path
       sodipodi:type="arc"
       style="fill:#ffaf00;fill-opacity:1;stroke:#000000;stroke-width:1.20000005;stroke-miterlimit:4;stroke-opacity:1;stroke-dasharray:none;stroke-dashoffset:0"
       id="path5581"
       sodipodi:cx="372.24121"
       sodipodi:cy="277.5752"
       sodipodi:rx="20.203056"
       sodipodi:ry="20.203056"
       d="m 392.44427,277.5752 c 0,11.15784 -9.04522,20.20305 -20.20306,20.20305 -11.15784,0 -20.20306,-9.04521 -20.20306,-20.20305 0,-11.15784 9.04522,-20.20306 20.20306,-20.20306 11.15784,0 20.20306,9.04522 20.20306,20.20306 z"
       transform="matrix(0.51442109,0,0,0.51442109,258.35687,139.60985)" />
  </g>
</svg>
