<?xml version="1.0" encoding="UTF-8" standalone="no"?>
<!-- Created with Inkscape (http://www.inkscape.org/) -->

<svg
   xmlns:dc="http://purl.org/dc/elements/1.1/"
   xmlns:cc="http://creativecommons.org/ns#"
   xmlns:rdf="http://www.w3.org/1999/02/22-rdf-syntax-ns#"
   xmlns:svg="http://www.w3.org/2000/svg"
   xmlns="http://www.w3.org/2000/svg"
   xmlns:sodipodi="http://sodipodi.sourceforge.net/DTD/sodipodi-0.dtd"
   xmlns:inkscape="http://www.inkscape.org/namespaces/inkscape"
   width="339.71649"
   height="122.11098"
   id="svg2"
   version="1.1"
   inkscape:version="0.48.4 r9939"
   sodipodi:docname="edge-difference-01.svg">
  <defs
     id="defs4">
    <marker
       inkscape:stockid="TriangleOutM"
       orient="auto"
       refY="0"
       refX="0"
       id="TriangleOutM"
       style="overflow:visible">
      <path
         id="path4511"
         d="m 5.77,0 -8.65,5 0,-10 8.65,5 z"
         style="fill-rule:evenodd;stroke:#000000;stroke-width:1pt"
         transform="scale(0.4,0.4)"
         inkscape:connector-curvature="0" />
    </marker>
    <marker
       inkscape:stockid="Arrow1Mend"
       orient="auto"
       refY="0"
       refX="0"
       id="Arrow1Mend"
       style="overflow:visible">
      <path
         id="path4375"
         d="M 0,0 5,-5 -12.5,0 5,5 0,0 z"
         style="fill-rule:evenodd;stroke:#000000;stroke-width:1pt"
         transform="matrix(-0.4,0,0,-0.4,-4,0)"
         inkscape:connector-curvature="0" />
    </marker>
    <marker
       inkscape:stockid="Arrow1Lend"
       orient="auto"
       refY="0"
       refX="0"
       id="Arrow1Lend"
       style="overflow:visible">
      <path
         id="path4369"
         d="M 0,0 5,-5 -12.5,0 5,5 0,0 z"
         style="fill-rule:evenodd;stroke:#000000;stroke-width:1pt"
         transform="matrix(-0.8,0,0,-0.8,-10,0)"
         inkscape:connector-curvature="0" />
    </marker>
  </defs>
  <sodipodi:namedview
     id="base"
     pagecolor="#ffffff"
     bordercolor="#666666"
     borderopacity="1.0"
     inkscape:pageopacity="0.0"
     inkscape:pageshadow="2"
     inkscape:zoom="1.4"
     inkscape:cx="106.40475"
     inkscape:cy="159.66093"
     inkscape:document-units="px"
     inkscape:current-layer="layer1"
     showgrid="false"
     inkscape:window-width="1920"
     inkscape:window-height="1051"
     inkscape:window-x="0"
     inkscape:window-y="0"
     inkscape:window-maximized="1"
     fit-margin-top="0"
     fit-margin-left="0"
     fit-margin-right="0"
     fit-margin-bottom="0" />
  <metadata
     id="metadata7">
    <rdf:RDF>
      <cc:Work
         rdf:about="">
        <dc:format>image/svg+xml</dc:format>
        <dc:type
           rdf:resource="http://purl.org/dc/dcmitype/StillImage" />
        <dc:title></dc:title>
      </cc:Work>
    </rdf:RDF>
  </metadata>
  <g
     inkscape:label="Layer 1"
     inkscape:groupmode="layer"
     id="layer1"
     transform="translate(-47.252491,-147.41782)">
    <path
       inkscape:connector-curvature="0"
       id="path3943"
       d="m 130.58349,206.42355 55.17585,-37.22949"
       style="fill:none;stroke:#000000;stroke-width:2.70000005;stroke-linecap:butt;stroke-linejoin:miter;stroke-miterlimit:4;stroke-opacity:1;stroke-dasharray:none"
       sodipodi:nodetypes="cc" />
    <path
       inkscape:connector-curvature="0"
       id="path5575"
       d="m 133.66723,213.65307 57.75817,-0.34406"
       style="fill:none;stroke:#000000;stroke-width:2.70000005;stroke-linecap:butt;stroke-linejoin:miter;stroke-miterlimit:4;stroke-opacity:1;stroke-dasharray:none"
       sodipodi:nodetypes="cc" />
    <path
       sodipodi:nodetypes="cc"
       style="fill:none;stroke:#000000;stroke-width:2.70000005;stroke-linecap:butt;stroke-linejoin:miter;stroke-miterlimit:4;stroke-opacity:1;stroke-dasharray:none"
       d="M 117.23867,212.93878 65.71112,212.59472"
       id="path5577"
       inkscape:connector-curvature="0" />
    <path
       transform="matrix(0.51442109,0,0,0.51442109,-64.404904,70.653344)"
       d="m 392.44427,277.5752 c 0,11.15784 -9.04522,20.20305 -20.20306,20.20305 -11.15784,0 -20.20306,-9.04521 -20.20306,-20.20305 0,-11.15784 9.04522,-20.20306 20.20306,-20.20306 11.15784,0 20.20306,9.04522 20.20306,20.20306 z"
       sodipodi:ry="20.203056"
       sodipodi:rx="20.203056"
       sodipodi:cy="277.5752"
       sodipodi:cx="372.24121"
       id="path3945"
       style="fill:#ffaf00;fill-opacity:1;stroke:#000000;stroke-width:1.20000005;stroke-miterlimit:4;stroke-opacity:1;stroke-dasharray:none;stroke-dashoffset:0"
       sodipodi:type="arc" />
    <path
       sodipodi:type="arc"
       style="fill:#ffaf00;fill-opacity:1;stroke:#000000;stroke-width:1.20000005;stroke-miterlimit:4;stroke-opacity:1;stroke-dasharray:none;stroke-dashoffset:0"
       id="path5573"
       sodipodi:cx="372.24121"
       sodipodi:cy="277.5752"
       sodipodi:rx="20.203056"
       sodipodi:ry="20.203056"
       d="m 392.44427,277.5752 c 0,11.15784 -9.04522,20.20305 -20.20306,20.20305 -11.15784,0 -20.20306,-9.04521 -20.20306,-20.20305 0,-11.15784 9.04522,-20.20306 20.20306,-20.20306 11.15784,0 20.20306,9.04522 20.20306,20.20306 z"
       transform="matrix(0.51442109,0,0,0.51442109,-129.4049,67.796198)" />
    <path
       sodipodi:nodetypes="cc"
       style="fill:none;stroke:#000000;stroke-width:2.70000005;stroke-linecap:butt;stroke-linejoin:miter;stroke-miterlimit:4;stroke-opacity:1;stroke-dasharray:none"
       d="m 193.44062,167.85211 50.17586,40.62766"
       id="path5579"
       inkscape:connector-curvature="0" />
    <path
       sodipodi:type="arc"
       style="fill:#ffaf00;fill-opacity:1;stroke:#000000;stroke-width:1.20000005;stroke-miterlimit:4;stroke-opacity:1;stroke-dasharray:none;stroke-dashoffset:0"
       id="path3828"
       sodipodi:cx="372.24121"
       sodipodi:cy="277.5752"
       sodipodi:rx="20.203056"
       sodipodi:ry="20.203056"
       d="m 392.44427,277.5752 c 0,11.15784 -9.04522,20.20305 -20.20306,20.20305 -11.15784,0 -20.20306,-9.04521 -20.20306,-20.20305 0,-11.15784 9.04522,-20.20306 20.20306,-20.20306 11.15784,0 20.20306,9.04522 20.20306,20.20306 z"
       transform="matrix(0.51442109,0,0,0.51442109,-0.92885739,23.895563)" />
    <path
       inkscape:connector-curvature="0"
       id="path5583"
       d="m 238.44062,212.13782 -44.10986,-0.0866"
       style="fill:none;stroke:#000000;stroke-width:2.70000005;stroke-linecap:butt;stroke-linejoin:miter;stroke-miterlimit:4;stroke-opacity:1;stroke-dasharray:none"
       sodipodi:nodetypes="cc" />
    <path
       transform="matrix(0.51442109,0,0,0.51442109,-1.6431342,71.752711)"
       d="m 392.44427,277.5752 c 0,11.15784 -9.04522,20.20305 -20.20306,20.20305 -11.15784,0 -20.20306,-9.04521 -20.20306,-20.20305 0,-11.15784 9.04522,-20.20306 20.20306,-20.20306 11.15784,0 20.20306,9.04522 20.20306,20.20306 z"
       sodipodi:ry="20.203056"
       sodipodi:rx="20.203056"
       sodipodi:cy="277.5752"
       sodipodi:cx="372.24121"
       id="path5571"
       style="fill:#ffaf00;fill-opacity:1;stroke:#000000;stroke-width:1.20000005;stroke-miterlimit:4;stroke-opacity:1;stroke-dasharray:none;stroke-dashoffset:0"
       sodipodi:type="arc" />
    <path
       inkscape:connector-curvature="0"
       id="path6016"
       d="m 318.44062,212.85211 42.31871,-52.22948"
       style="fill:none;stroke:#000000;stroke-width:2.70000005;stroke-linecap:butt;stroke-linejoin:miter;stroke-miterlimit:4;stroke-opacity:1;stroke-dasharray:none"
       sodipodi:nodetypes="cc" />
    <path
       inkscape:connector-curvature="0"
       id="path6020"
       d="M 318.44062,212.85211 347.1879,257.0512"
       style="fill:none;stroke:#000000;stroke-width:2.70000005;stroke-linecap:butt;stroke-linejoin:miter;stroke-miterlimit:4;stroke-opacity:1;stroke-dasharray:none"
       sodipodi:nodetypes="cc" />
    <path
       inkscape:connector-curvature="0"
       id="path6012"
       d="m 318.44062,212.85211 -70.53843,-1.5152"
       style="fill:none;stroke:#000000;stroke-width:2.70000005;stroke-linecap:butt;stroke-linejoin:miter;stroke-miterlimit:4;stroke-opacity:1;stroke-dasharray:none"
       sodipodi:nodetypes="cc" />
    <path
       sodipodi:nodetypes="cc"
       style="fill:none;stroke:#000000;stroke-width:2.70000005;stroke-linecap:butt;stroke-linejoin:miter;stroke-miterlimit:4;stroke-opacity:1;stroke-dasharray:none"
       d="M 318.44062,212.85211 297.1879,159.90834"
       id="path6014"
       inkscape:connector-curvature="0" />
    <path
       sodipodi:nodetypes="cc"
       style="fill:none;stroke:#000000;stroke-width:2.70000005;stroke-linecap:butt;stroke-linejoin:miter;stroke-miterlimit:4;stroke-opacity:1;stroke-dasharray:none"
       d="m 318.44062,212.85211 57.31871,2.05623"
       id="path6018"
       inkscape:connector-curvature="0" />
    <path
       sodipodi:nodetypes="cc"
       style="fill:none;stroke:#000000;stroke-width:2.70000005;stroke-linecap:butt;stroke-linejoin:miter;stroke-miterlimit:4;stroke-opacity:1;stroke-dasharray:none"
       d="m 318.44062,212.85211 -30.53843,42.77052"
       id="path6022"
       inkscape:connector-curvature="0" />
    <path
       transform="matrix(0.51442109,0,0,0.51442109,129.78543,70.324134)"
       d="m 392.44427,277.5752 c 0,11.15784 -9.04522,20.20305 -20.20306,20.20305 -11.15784,0 -20.20306,-9.04521 -20.20306,-20.20305 0,-11.15784 9.04522,-20.20306 20.20306,-20.20306 11.15784,0 20.20306,9.04522 20.20306,20.20306 z"
       sodipodi:ry="20.203056"
       sodipodi:rx="20.203056"
       sodipodi:cy="277.5752"
       sodipodi:cx="372.24121"
       id="path6000"
       style="fill:#ffaf00;fill-opacity:1;stroke:#000000;stroke-width:1.20000005;stroke-miterlimit:4;stroke-opacity:1;stroke-dasharray:none;stroke-dashoffset:0"
       sodipodi:type="arc" />
    <path
       sodipodi:type="arc"
       style="fill:#ffaf00;fill-opacity:1;stroke:#000000;stroke-width:1.20000005;stroke-miterlimit:4;stroke-opacity:1;stroke-dasharray:none;stroke-dashoffset:0"
       id="path5581"
       sodipodi:cx="372.24121"
       sodipodi:cy="277.5752"
       sodipodi:rx="20.203056"
       sodipodi:ry="20.203056"
       d="m 392.44427,277.5752 c 0,11.15784 -9.04522,20.20305 -20.20306,20.20305 -11.15784,0 -20.20306,-9.04521 -20.20306,-20.20305 0,-11.15784 9.04522,-20.20306 20.20306,-20.20306 11.15784,0 20.20306,9.04522 20.20306,20.20306 z"
       transform="matrix(0.51442109,0,0,0.51442109,53.356876,70.324133)" />
    <path
       sodipodi:type="arc"
       style="fill:#ffaf00;fill-opacity:1;stroke:#000000;stroke-width:1.20000005;stroke-miterlimit:4;stroke-opacity:1;stroke-dasharray:none;stroke-dashoffset:0"
       id="path6002"
       sodipodi:cx="372.24121"
       sodipodi:cy="277.5752"
       sodipodi:rx="20.203056"
       sodipodi:ry="20.203056"
       d="m 392.44427,277.5752 c 0,11.15784 -9.04522,20.20305 -20.20306,20.20305 -11.15784,0 -20.20306,-9.04521 -20.20306,-20.20305 0,-11.15784 9.04522,-20.20306 20.20306,-20.20306 11.15784,0 20.20306,9.04522 20.20306,20.20306 z"
       transform="matrix(0.51442109,0,0,0.51442109,106.214,15.324134)" />
    <path
       sodipodi:type="arc"
       style="fill:#ffaf00;fill-opacity:1;stroke:#000000;stroke-width:1.20000005;stroke-miterlimit:4;stroke-opacity:1;stroke-dasharray:none;stroke-dashoffset:0"
       id="path6004"
       sodipodi:cx="372.24121"
       sodipodi:cy="277.5752"
       sodipodi:rx="20.203056"
       sodipodi:ry="20.203056"
       d="m 392.44427,277.5752 c 0,11.15784 -9.04522,20.20305 -20.20306,20.20305 -11.15784,0 -20.20306,-9.04521 -20.20306,-20.20305 0,-11.15784 9.04522,-20.20306 20.20306,-20.20306 11.15784,0 20.20306,9.04522 20.20306,20.20306 z"
       transform="matrix(0.51442109,0,0,0.51442109,166.214,15.324134)" />
    <path
       sodipodi:type="arc"
       style="fill:#ffaf00;fill-opacity:1;stroke:#000000;stroke-width:1.20000005;stroke-miterlimit:4;stroke-opacity:1;stroke-dasharray:none;stroke-dashoffset:0"
       id="path6006"
       sodipodi:cx="372.24121"
       sodipodi:cy="277.5752"
       sodipodi:rx="20.203056"
       sodipodi:ry="20.203056"
       d="m 392.44427,277.5752 c 0,11.15784 -9.04522,20.20305 -20.20306,20.20305 -11.15784,0 -20.20306,-9.04521 -20.20306,-20.20305 0,-11.15784 9.04522,-20.20306 20.20306,-20.20306 11.15784,0 20.20306,9.04522 20.20306,20.20306 z"
       transform="matrix(0.51442109,0,0,0.51442109,184.78543,70.324134)" />
    <path
       sodipodi:type="arc"
       style="fill:#ffaf00;fill-opacity:1;stroke:#000000;stroke-width:1.20000005;stroke-miterlimit:4;stroke-opacity:1;stroke-dasharray:none;stroke-dashoffset:0"
       id="path6010"
       sodipodi:cx="372.24121"
       sodipodi:cy="277.5752"
       sodipodi:rx="20.203056"
       sodipodi:ry="20.203056"
       d="m 392.44427,277.5752 c 0,11.15784 -9.04522,20.20305 -20.20306,20.20305 -11.15784,0 -20.20306,-9.04521 -20.20306,-20.20305 0,-11.15784 9.04522,-20.20306 20.20306,-20.20306 11.15784,0 20.20306,9.04522 20.20306,20.20306 z"
       transform="matrix(0.51442109,0,0,0.51442109,156.214,116.03842)" />
    <path
       sodipodi:type="arc"
       style="fill:#ffaf00;fill-opacity:1;stroke:#000000;stroke-width:1.20000005;stroke-miterlimit:4;stroke-opacity:1;stroke-dasharray:none;stroke-dashoffset:0"
       id="path6008"
       sodipodi:cx="372.24121"
       sodipodi:cy="277.5752"
       sodipodi:rx="20.203056"
       sodipodi:ry="20.203056"
       d="m 392.44427,277.5752 c 0,11.15784 -9.04522,20.20305 -20.20306,20.20305 -11.15784,0 -20.20306,-9.04521 -20.20306,-20.20305 0,-11.15784 9.04522,-20.20306 20.20306,-20.20306 11.15784,0 20.20306,9.04522 20.20306,20.20306 z"
       transform="matrix(0.51442109,0,0,0.51442109,98.356859,113.89556)" />
    <text
       xml:space="preserve"
       style="font-size:20px;font-style:normal;font-weight:normal;line-height:125%;letter-spacing:0px;word-spacing:0px;fill:#000000;fill-opacity:1;stroke:none;font-family:Sans"
       x="47.096241"
       y="235.95738"
       id="text6024"
       sodipodi:linespacing="125%"><tspan
         sodipodi:role="line"
         id="tspan6026"
         x="47.096241"
         y="235.95738">A</tspan></text>
    <text
       sodipodi:linespacing="125%"
       id="text6028"
       y="235.95738"
       x="172.09624"
       style="font-size:20px;font-style:normal;font-weight:normal;line-height:125%;letter-spacing:0px;word-spacing:0px;fill:#000000;fill-opacity:1;stroke:none;font-family:Sans"
       xml:space="preserve"><tspan
         y="235.95738"
         x="172.09624"
         id="tspan6030"
         sodipodi:role="line">B</tspan></text>
    <text
       xml:space="preserve"
       style="font-size:20px;font-style:normal;font-weight:normal;line-height:125%;letter-spacing:0px;word-spacing:0px;fill:#000000;fill-opacity:1;stroke:none;font-family:Sans"
       x="309.23911"
       y="239.52881"
       id="text6032"
       sodipodi:linespacing="125%"><tspan
         sodipodi:role="line"
         id="tspan6034"
         x="309.23911"
         y="239.52881">C</tspan></text>
    <text
       xml:space="preserve"
       style="font-size:14.225564px;font-style:normal;font-weight:normal;line-height:125%;letter-spacing:0px;word-spacing:0px;fill:#000000;fill-opacity:1;stroke:none;font-family:Sans"
       x="152.67542"
       y="226.67166"
       id="text6055"
       sodipodi:linespacing="125%"><tspan
         sodipodi:role="line"
         id="tspan6057"
         x="152.67542"
         y="226.67166">2</tspan></text>
    <text
       sodipodi:linespacing="125%"
       id="text6059"
       y="226.67166"
       x="213.38971"
       style="font-size:14.225564px;font-style:normal;font-weight:normal;line-height:125%;letter-spacing:0px;word-spacing:0px;fill:#000000;fill-opacity:1;stroke:none;font-family:Sans"
       xml:space="preserve"><tspan
         y="226.67166"
         x="213.38971"
         id="tspan6061"
         sodipodi:role="line">2</tspan></text>
  </g>
</svg>
