<?xml version="1.0" encoding="UTF-8" standalone="no"?>
<!-- Created with Inkscape (http://www.inkscape.org/) -->

<svg
   xmlns:dc="http://purl.org/dc/elements/1.1/"
   xmlns:cc="http://creativecommons.org/ns#"
   xmlns:rdf="http://www.w3.org/1999/02/22-rdf-syntax-ns#"
   xmlns:svg="http://www.w3.org/2000/svg"
   xmlns="http://www.w3.org/2000/svg"
   xmlns:sodipodi="http://sodipodi.sourceforge.net/DTD/sodipodi-0.dtd"
   xmlns:inkscape="http://www.inkscape.org/namespaces/inkscape"
   width="501.30133"
   height="173.65851"
   id="svg2"
   version="1.1"
   inkscape:version="0.48.4 r9939"
   sodipodi:docname="witness-01.svg">
  <defs
     id="defs4" />
  <sodipodi:namedview
     id="base"
     pagecolor="#ffffff"
     bordercolor="#666666"
     borderopacity="1.0"
     inkscape:pageopacity="0.0"
     inkscape:pageshadow="2"
     inkscape:zoom="1.4"
     inkscape:cx="227.27528"
     inkscape:cy="68.351293"
     inkscape:document-units="px"
     inkscape:current-layer="layer1"
     showgrid="false"
     inkscape:window-width="1920"
     inkscape:window-height="1051"
     inkscape:window-x="0"
     inkscape:window-y="0"
     inkscape:window-maximized="1"
     fit-margin-top="0"
     fit-margin-left="0"
     fit-margin-right="0"
     fit-margin-bottom="0" />
  <metadata
     id="metadata7">
    <rdf:RDF>
      <cc:Work
         rdf:about="">
        <dc:format>image/svg+xml</dc:format>
        <dc:type
           rdf:resource="http://purl.org/dc/dcmitype/StillImage" />
        <dc:title></dc:title>
      </cc:Work>
    </rdf:RDF>
  </metadata>
  <g
     inkscape:label="Layer 1"
     inkscape:groupmode="layer"
     id="layer1"
     transform="translate(73.618038,-4.5606805)">
    <path
       inkscape:connector-curvature="0"
       id="path3848"
       d="M 23.20783,28.915603 65.27274,99.872449"
       style="fill:none;stroke:#000000;stroke-width:2.70000005;stroke-linecap:butt;stroke-linejoin:miter;stroke-miterlimit:4;stroke-opacity:1;stroke-dasharray:none"
       sodipodi:nodetypes="cc" />
    <path
       sodipodi:nodetypes="cc"
       style="fill:none;stroke:#000000;stroke-width:2.70000005;stroke-linecap:butt;stroke-linejoin:miter;stroke-miterlimit:4;stroke-opacity:1;stroke-dasharray:none"
       d="M -1.07788,161.77274 -61.87012,104.15816"
       id="path3939"
       inkscape:connector-curvature="0" />
    <path
       inkscape:connector-curvature="0"
       id="path3943"
       d="m 66.29776,106.42355 -126.967,-9.372349"
       style="fill:#ff0000;stroke:#ff0000;stroke-width:2.70000005;stroke-linecap:butt;stroke-linejoin:miter;stroke-miterlimit:4;stroke-opacity:1;stroke-dasharray:none"
       sodipodi:nodetypes="cc" />
    <path
       sodipodi:nodetypes="cc"
       style="fill:none;stroke:#000000;stroke-width:2.70000005;stroke-linecap:butt;stroke-linejoin:miter;stroke-miterlimit:4;stroke-opacity:1;stroke-dasharray:none"
       d="M 3.66724,165.79593 61.4254,106.88043"
       id="path3947"
       inkscape:connector-curvature="0" />
    <path
       transform="matrix(0.51442109,0,0,0.51442109,-126.06116,-40.1117)"
       d="m 392.44427,277.5752 c 0,11.15784 -9.04522,20.20305 -20.20306,20.20305 -11.15784,0 -20.20306,-9.04521 -20.20306,-20.20305 0,-11.15784 9.04522,-20.20306 20.20306,-20.20306 11.15784,0 20.20306,9.04522 20.20306,20.20306 z"
       sodipodi:ry="20.203056"
       sodipodi:rx="20.203056"
       sodipodi:cy="277.5752"
       sodipodi:cx="372.24121"
       id="path3949"
       style="fill:#ffaf00;fill-opacity:1;stroke:#000000;stroke-width:1.20000005;stroke-miterlimit:4;stroke-opacity:1;stroke-dasharray:none;stroke-dashoffset:0"
       sodipodi:type="arc" />
    <path
       sodipodi:type="arc"
       style="fill:#009cff;fill-opacity:1;stroke:#000000;stroke-width:1.20000005;stroke-miterlimit:4;stroke-opacity:1;stroke-dasharray:none;stroke-dashoffset:0"
       id="path3961"
       sodipodi:cx="372.24121"
       sodipodi:cy="277.5752"
       sodipodi:rx="20.203056"
       sodipodi:ry="20.203056"
       d="m 392.44427,277.5752 c 0,11.15784 -9.04522,20.20305 -20.20306,20.20305 -11.15784,0 -20.20306,-9.04521 -20.20306,-20.20305 0,-11.15784 9.04522,-20.20306 20.20306,-20.20306 11.15784,0 20.20306,9.04522 20.20306,20.20306 z"
       transform="matrix(0.51442109,0,0,0.51442109,-190.28635,24.728799)" />
    <path
       sodipodi:nodetypes="cc"
       style="fill:none;stroke:#000000;stroke-width:2.70000005;stroke-linecap:butt;stroke-linejoin:miter;stroke-miterlimit:4;stroke-opacity:1;stroke-dasharray:none"
       d="M 21.96745,26.978342 -61.75988,101.09947"
       id="path4106"
       inkscape:connector-curvature="0" />
    <path
       transform="matrix(0.51442109,0,0,0.51442109,-254.4049,-42.918084)"
       d="m 392.44427,277.5752 c 0,11.15784 -9.04522,20.20305 -20.20306,20.20305 -11.15784,0 -20.20306,-9.04521 -20.20306,-20.20305 0,-11.15784 9.04522,-20.20306 20.20306,-20.20306 11.15784,0 20.20306,9.04522 20.20306,20.20306 z"
       sodipodi:ry="20.203056"
       sodipodi:rx="20.203056"
       sodipodi:cy="277.5752"
       sodipodi:cx="372.24121"
       id="path3945"
       style="fill:#ffaf00;fill-opacity:1;stroke:#000000;stroke-width:1.20000005;stroke-miterlimit:4;stroke-opacity:1;stroke-dasharray:none;stroke-dashoffset:0"
       sodipodi:type="arc" />
    <path
       transform="matrix(0.51442109,0,0,0.51442109,-169.50028,-116.81872)"
       d="m 392.44427,277.5752 c 0,11.15784 -9.04522,20.20305 -20.20306,20.20305 -11.15784,0 -20.20306,-9.04521 -20.20306,-20.20305 0,-11.15784 9.04522,-20.20306 20.20306,-20.20306 11.15784,0 20.20306,9.04522 20.20306,20.20306 z"
       sodipodi:ry="20.203056"
       sodipodi:rx="20.203056"
       sodipodi:cy="277.5752"
       sodipodi:cx="372.24121"
       id="path3941"
       style="fill:#ffaf00;fill-opacity:1;stroke:#000000;stroke-width:1.20000005;stroke-miterlimit:4;stroke-opacity:1;stroke-dasharray:none;stroke-dashoffset:0"
       sodipodi:type="arc" />
    <text
       xml:space="preserve"
       style="font-size:14.33367157px;font-style:normal;font-weight:normal;line-height:125%;letter-spacing:0px;word-spacing:0px;fill:#000000;fill-opacity:1;stroke:none;font-family:Sans"
       x="-39.546234"
       y="147.59383"
       id="text5792"
       sodipodi:linespacing="125%"><tspan
         sodipodi:role="line"
         id="tspan5794"
         x="-39.546234"
         y="147.59383">2</tspan></text>
    <text
       sodipodi:linespacing="125%"
       id="text5817"
       y="146.87955"
       x="36.882324"
       style="font-size:14.33367157px;font-style:normal;font-weight:normal;line-height:125%;letter-spacing:0px;word-spacing:0px;fill:#000000;fill-opacity:1;stroke:none;font-family:Sans"
       xml:space="preserve"><tspan
         y="146.87955"
         x="36.882324"
         id="tspan5819"
         sodipodi:role="line">2</tspan></text>
    <text
       xml:space="preserve"
       style="font-size:14.33367157px;font-style:normal;font-weight:normal;line-height:125%;letter-spacing:0px;word-spacing:0px;fill:#000000;fill-opacity:1;stroke:none;font-family:Sans"
       x="4.025177"
       y="97.593834"
       id="text5821"
       sodipodi:linespacing="125%"><tspan
         sodipodi:role="line"
         id="tspan5823"
         x="4.025177"
         y="97.593834">4</tspan></text>
    <path
       sodipodi:nodetypes="cc"
       style="fill:none;stroke:#000000;stroke-width:2.70000005;stroke-linecap:butt;stroke-linejoin:miter;stroke-miterlimit:4;stroke-opacity:1;stroke-dasharray:none"
       d="m 243.92211,35.344174 -2.2208,64.528275"
       id="path5825"
       inkscape:connector-curvature="0" />
    <path
       inkscape:connector-curvature="0"
       id="path5827"
       d="M 175.35069,161.77274 114.55845,104.15816"
       style="fill:none;stroke:#000000;stroke-width:2.70000005;stroke-linecap:butt;stroke-linejoin:miter;stroke-miterlimit:4;stroke-opacity:1;stroke-dasharray:none"
       sodipodi:nodetypes="cc" />
    <path
       sodipodi:nodetypes="cc"
       style="fill:#ff0000;stroke:#ff0000;stroke-width:2.70000005;stroke-linecap:butt;stroke-linejoin:miter;stroke-miterlimit:4;stroke-opacity:1;stroke-dasharray:none"
       d="m 242.72633,106.42355 -126.967,-9.372349"
       id="path5829"
       inkscape:connector-curvature="0" />
    <path
       inkscape:connector-curvature="0"
       id="path5831"
       d="m 180.09581,165.79593 57.75816,-58.9155"
       style="fill:none;stroke:#000000;stroke-width:2.70000005;stroke-linecap:butt;stroke-linejoin:miter;stroke-miterlimit:4;stroke-opacity:1;stroke-dasharray:none"
       sodipodi:nodetypes="cc" />
    <path
       sodipodi:type="arc"
       style="fill:#ffaf00;fill-opacity:1;stroke:#000000;stroke-width:1.20000005;stroke-miterlimit:4;stroke-opacity:1;stroke-dasharray:none;stroke-dashoffset:0"
       id="path5833"
       sodipodi:cx="372.24121"
       sodipodi:cy="277.5752"
       sodipodi:rx="20.203056"
       sodipodi:ry="20.203056"
       d="m 392.44427,277.5752 c 0,11.15784 -9.04522,20.20305 -20.20306,20.20305 -11.15784,0 -20.20306,-9.04521 -20.20306,-20.20305 0,-11.15784 9.04522,-20.20306 20.20306,-20.20306 11.15784,0 20.20306,9.04522 20.20306,20.20306 z"
       transform="matrix(0.51442109,0,0,0.51442109,50.367411,-40.1117)" />
    <path
       transform="matrix(0.51442109,0,0,0.51442109,-13.857779,24.728799)"
       d="m 392.44427,277.5752 c 0,11.15784 -9.04522,20.20305 -20.20306,20.20305 -11.15784,0 -20.20306,-9.04521 -20.20306,-20.20305 0,-11.15784 9.04522,-20.20306 20.20306,-20.20306 11.15784,0 20.20306,9.04522 20.20306,20.20306 z"
       sodipodi:ry="20.203056"
       sodipodi:rx="20.203056"
       sodipodi:cy="277.5752"
       sodipodi:cx="372.24121"
       id="path5835"
       style="fill:#009cff;fill-opacity:1;stroke:#000000;stroke-width:1.20000005;stroke-miterlimit:4;stroke-opacity:1;stroke-dasharray:none;stroke-dashoffset:0"
       sodipodi:type="arc" />
    <path
       inkscape:connector-curvature="0"
       id="path5837"
       d="m 129.82459,36.264056 -15.1559,64.835414"
       style="fill:none;stroke:#000000;stroke-width:2.70000005;stroke-linecap:butt;stroke-linejoin:miter;stroke-miterlimit:4;stroke-opacity:1;stroke-dasharray:none"
       sodipodi:nodetypes="cc" />
    <path
       sodipodi:type="arc"
       style="fill:#ffaf00;fill-opacity:1;stroke:#000000;stroke-width:1.20000005;stroke-miterlimit:4;stroke-opacity:1;stroke-dasharray:none;stroke-dashoffset:0"
       id="path5839"
       sodipodi:cx="372.24121"
       sodipodi:cy="277.5752"
       sodipodi:rx="20.203056"
       sodipodi:ry="20.203056"
       d="m 392.44427,277.5752 c 0,11.15784 -9.04522,20.20305 -20.20306,20.20305 -11.15784,0 -20.20306,-9.04521 -20.20306,-20.20305 0,-11.15784 9.04522,-20.20306 20.20306,-20.20306 11.15784,0 20.20306,9.04522 20.20306,20.20306 z"
       transform="matrix(0.51442109,0,0,0.51442109,-77.976329,-42.918084)" />
    <text
       sodipodi:linespacing="125%"
       id="text5843"
       y="147.59383"
       x="136.88234"
       style="font-size:14.33367157px;font-style:normal;font-weight:normal;line-height:125%;letter-spacing:0px;word-spacing:0px;fill:#000000;fill-opacity:1;stroke:none;font-family:Sans"
       xml:space="preserve"><tspan
         y="147.59383"
         x="136.88234"
         id="tspan5845"
         sodipodi:role="line">2</tspan></text>
    <text
       xml:space="preserve"
       style="font-size:14.33367157px;font-style:normal;font-weight:normal;line-height:125%;letter-spacing:0px;word-spacing:0px;fill:#000000;fill-opacity:1;stroke:none;font-family:Sans"
       x="213.3109"
       y="146.87955"
       id="text5847"
       sodipodi:linespacing="125%"><tspan
         sodipodi:role="line"
         id="tspan5849"
         x="213.3109"
         y="146.87955">2</tspan></text>
    <text
       sodipodi:linespacing="125%"
       id="text5851"
       y="97.593834"
       x="180.45375"
       style="font-size:14.33367157px;font-style:normal;font-weight:normal;line-height:125%;letter-spacing:0px;word-spacing:0px;fill:#000000;fill-opacity:1;stroke:none;font-family:Sans"
       xml:space="preserve"><tspan
         y="97.593834"
         x="180.45375"
         id="tspan5853"
         sodipodi:role="line">4</tspan></text>
    <path
       sodipodi:nodetypes="cc"
       style="fill:none;stroke:#000000;stroke-width:2.70000005;stroke-linecap:butt;stroke-linejoin:miter;stroke-miterlimit:4;stroke-opacity:1;stroke-dasharray:none"
       d="m 129.82459,36.264056 57.70124,-19.4503"
       id="path5859"
       inkscape:connector-curvature="0" />
    <path
       sodipodi:type="arc"
       style="fill:#ffaf00;fill-opacity:1;stroke:#000000;stroke-width:1.20000005;stroke-miterlimit:4;stroke-opacity:1;stroke-dasharray:none;stroke-dashoffset:0"
       id="path5841"
       sodipodi:cx="372.24121"
       sodipodi:cy="277.5752"
       sodipodi:rx="20.203056"
       sodipodi:ry="20.203056"
       d="m 392.44427,277.5752 c 0,11.15784 -9.04522,20.20305 -20.20306,20.20305 -11.15784,0 -20.20306,-9.04521 -20.20306,-20.20305 0,-11.15784 9.04522,-20.20306 20.20306,-20.20306 11.15784,0 20.20306,9.04522 20.20306,20.20306 z"
       transform="matrix(0.51442109,0,0,0.51442109,-57.357423,-113.24729)" />
    <path
       inkscape:connector-curvature="0"
       id="path5861"
       d="M 243.92211,35.344174 191.70131,15.586735"
       style="fill:none;stroke:#000000;stroke-width:2.70000005;stroke-linecap:butt;stroke-linejoin:miter;stroke-miterlimit:4;stroke-opacity:1;stroke-dasharray:none"
       sodipodi:nodetypes="cc" />
    <path
       transform="matrix(0.51442109,0,0,0.51442109,51.928292,-110.39015)"
       d="m 392.44427,277.5752 c 0,11.15784 -9.04522,20.20305 -20.20306,20.20305 -11.15784,0 -20.20306,-9.04521 -20.20306,-20.20305 0,-11.15784 9.04522,-20.20306 20.20306,-20.20306 11.15784,0 20.20306,9.04522 20.20306,20.20306 z"
       sodipodi:ry="20.203056"
       sodipodi:rx="20.203056"
       sodipodi:cy="277.5752"
       sodipodi:cx="372.24121"
       id="path5855"
       style="fill:#ffaf00;fill-opacity:1;stroke:#000000;stroke-width:1.20000005;stroke-miterlimit:4;stroke-opacity:1;stroke-dasharray:none;stroke-dashoffset:0"
       sodipodi:type="arc" />
    <path
       sodipodi:type="arc"
       style="fill:#ffaf00;fill-opacity:1;stroke:#000000;stroke-width:1.20000005;stroke-miterlimit:4;stroke-opacity:1;stroke-dasharray:none;stroke-dashoffset:0"
       id="path5857"
       sodipodi:cx="372.24121"
       sodipodi:cy="277.5752"
       sodipodi:rx="20.203056"
       sodipodi:ry="20.203056"
       d="m 392.44427,277.5752 c 0,11.15784 -9.04522,20.20305 -20.20306,20.20305 -11.15784,0 -20.20306,-9.04521 -20.20306,-20.20305 0,-11.15784 9.04522,-20.20306 20.20306,-20.20306 11.15784,0 20.20306,9.04522 20.20306,20.20306 z"
       transform="matrix(0.51442109,0,0,0.51442109,-2.3574223,-127.53301)" />
    <path
       inkscape:connector-curvature="0"
       id="path5863"
       d="m 417.49354,35.344174 -2.2208,64.528275"
       style="fill:none;stroke:#000000;stroke-width:2.70000005;stroke-linecap:butt;stroke-linejoin:miter;stroke-miterlimit:4;stroke-opacity:1;stroke-dasharray:none"
       sodipodi:nodetypes="cc" />
    <path
       sodipodi:nodetypes="cc"
       style="fill:none;stroke:#000000;stroke-width:2.70000005;stroke-linecap:butt;stroke-linejoin:miter;stroke-miterlimit:4;stroke-opacity:1;stroke-dasharray:none"
       d="M 348.92212,161.77274 288.12988,104.15816"
       id="path5865"
       inkscape:connector-curvature="0" />
    <path
       inkscape:connector-curvature="0"
       id="path5867"
       d="m 416.29776,106.42355 -126.967,-9.372349"
       style="fill:#ff0000;stroke:#ff0000;stroke-width:2.70000005;stroke-linecap:butt;stroke-linejoin:miter;stroke-miterlimit:4;stroke-opacity:1;stroke-dasharray:none"
       sodipodi:nodetypes="cc" />
    <path
       sodipodi:nodetypes="cc"
       style="fill:none;stroke:#000000;stroke-width:2.70000005;stroke-linecap:butt;stroke-linejoin:miter;stroke-miterlimit:4;stroke-opacity:1;stroke-dasharray:none"
       d="m 353.66724,165.79593 57.75816,-58.9155"
       id="path5869"
       inkscape:connector-curvature="0" />
    <path
       transform="matrix(0.51442109,0,0,0.51442109,223.93884,-40.1117)"
       d="m 392.44427,277.5752 c 0,11.15784 -9.04522,20.20305 -20.20306,20.20305 -11.15784,0 -20.20306,-9.04521 -20.20306,-20.20305 0,-11.15784 9.04522,-20.20306 20.20306,-20.20306 11.15784,0 20.20306,9.04522 20.20306,20.20306 z"
       sodipodi:ry="20.203056"
       sodipodi:rx="20.203056"
       sodipodi:cy="277.5752"
       sodipodi:cx="372.24121"
       id="path5871"
       style="fill:#ffaf00;fill-opacity:1;stroke:#000000;stroke-width:1.20000005;stroke-miterlimit:4;stroke-opacity:1;stroke-dasharray:none;stroke-dashoffset:0"
       sodipodi:type="arc" />
    <path
       sodipodi:type="arc"
       style="fill:#009cff;fill-opacity:1;stroke:#000000;stroke-width:1.20000005;stroke-miterlimit:4;stroke-opacity:1;stroke-dasharray:none;stroke-dashoffset:0"
       id="path5873"
       sodipodi:cx="372.24121"
       sodipodi:cy="277.5752"
       sodipodi:rx="20.203056"
       sodipodi:ry="20.203056"
       d="m 392.44427,277.5752 c 0,11.15784 -9.04522,20.20305 -20.20306,20.20305 -11.15784,0 -20.20306,-9.04521 -20.20306,-20.20305 0,-11.15784 9.04522,-20.20306 20.20306,-20.20306 11.15784,0 20.20306,9.04522 20.20306,20.20306 z"
       transform="matrix(0.51442109,0,0,0.51442109,159.71365,24.728799)" />
    <path
       sodipodi:nodetypes="cc"
       style="fill:none;stroke:#000000;stroke-width:2.70000005;stroke-linecap:butt;stroke-linejoin:miter;stroke-miterlimit:4;stroke-opacity:1;stroke-dasharray:none"
       d="m 286.96745,45.54977 1.27267,55.5497"
       id="path5875"
       inkscape:connector-curvature="0" />
    <path
       transform="matrix(0.51442109,0,0,0.51442109,95.5951,-42.918084)"
       d="m 392.44427,277.5752 c 0,11.15784 -9.04522,20.20305 -20.20306,20.20305 -11.15784,0 -20.20306,-9.04521 -20.20306,-20.20305 0,-11.15784 9.04522,-20.20306 20.20306,-20.20306 11.15784,0 20.20306,9.04522 20.20306,20.20306 z"
       sodipodi:ry="20.203056"
       sodipodi:rx="20.203056"
       sodipodi:cy="277.5752"
       sodipodi:cx="372.24121"
       id="path5877"
       style="fill:#ffaf00;fill-opacity:1;stroke:#000000;stroke-width:1.20000005;stroke-miterlimit:4;stroke-opacity:1;stroke-dasharray:none;stroke-dashoffset:0"
       sodipodi:type="arc" />
    <text
       xml:space="preserve"
       style="font-size:14.33367157px;font-style:normal;font-weight:normal;line-height:125%;letter-spacing:0px;word-spacing:0px;fill:#000000;fill-opacity:1;stroke:none;font-family:Sans"
       x="310.45377"
       y="147.59383"
       id="text5879"
       sodipodi:linespacing="125%"><tspan
         sodipodi:role="line"
         id="tspan5881"
         x="310.45377"
         y="147.59383">2</tspan></text>
    <text
       sodipodi:linespacing="125%"
       id="text5883"
       y="146.87955"
       x="386.88232"
       style="font-size:14.33367157px;font-style:normal;font-weight:normal;line-height:125%;letter-spacing:0px;word-spacing:0px;fill:#000000;fill-opacity:1;stroke:none;font-family:Sans"
       xml:space="preserve"><tspan
         y="146.87955"
         x="386.88232"
         id="tspan5885"
         sodipodi:role="line">2</tspan></text>
    <text
       xml:space="preserve"
       style="font-size:14.33367157px;font-style:normal;font-weight:normal;line-height:125%;letter-spacing:0px;word-spacing:0px;fill:#000000;fill-opacity:1;stroke:none;font-family:Sans"
       x="354.02518"
       y="97.593834"
       id="text5887"
       sodipodi:linespacing="125%"><tspan
         sodipodi:role="line"
         id="tspan5889"
         x="354.02518"
         y="97.593834">4</tspan></text>
    <path
       inkscape:connector-curvature="0"
       id="path5891"
       d="m 326.96745,16.264056 34.12981,0.5497"
       style="fill:none;stroke:#000000;stroke-width:2.70000005;stroke-linecap:butt;stroke-linejoin:miter;stroke-miterlimit:4;stroke-opacity:1;stroke-dasharray:none"
       sodipodi:nodetypes="cc" />
    <path
       inkscape:connector-curvature="0"
       id="path5901"
       d="M 286.96745,45.54977 313.24012,18.242327"
       style="fill:none;stroke:#000000;stroke-width:2.70000005;stroke-linecap:butt;stroke-linejoin:miter;stroke-miterlimit:4;stroke-opacity:1;stroke-dasharray:none"
       sodipodi:nodetypes="cc" />
    <path
       transform="matrix(0.51442109,0,0,0.51442109,92.642581,-98.961576)"
       d="m 392.44427,277.5752 c 0,11.15784 -9.04522,20.20305 -20.20306,20.20305 -11.15784,0 -20.20306,-9.04521 -20.20306,-20.20305 0,-11.15784 9.04522,-20.20306 20.20306,-20.20306 11.15784,0 20.20306,9.04522 20.20306,20.20306 z"
       sodipodi:ry="20.203056"
       sodipodi:rx="20.203056"
       sodipodi:cy="277.5752"
       sodipodi:cx="372.24121"
       id="path5893"
       style="fill:#ffaf00;fill-opacity:1;stroke:#000000;stroke-width:1.20000005;stroke-miterlimit:4;stroke-opacity:1;stroke-dasharray:none;stroke-dashoffset:0"
       sodipodi:type="arc" />
    <path
       sodipodi:nodetypes="cc"
       style="fill:none;stroke:#000000;stroke-width:2.70000005;stroke-linecap:butt;stroke-linejoin:miter;stroke-miterlimit:4;stroke-opacity:1;stroke-dasharray:none"
       d="M 417.49354,35.344174 365.27274,15.586735"
       id="path5895"
       inkscape:connector-curvature="0" />
    <path
       sodipodi:type="arc"
       style="fill:#ffaf00;fill-opacity:1;stroke:#000000;stroke-width:1.20000005;stroke-miterlimit:4;stroke-opacity:1;stroke-dasharray:none;stroke-dashoffset:0"
       id="path5897"
       sodipodi:cx="372.24121"
       sodipodi:cy="277.5752"
       sodipodi:rx="20.203056"
       sodipodi:ry="20.203056"
       d="m 392.44427,277.5752 c 0,11.15784 -9.04522,20.20305 -20.20306,20.20305 -11.15784,0 -20.20306,-9.04521 -20.20306,-20.20305 0,-11.15784 9.04522,-20.20306 20.20306,-20.20306 11.15784,0 20.20306,9.04522 20.20306,20.20306 z"
       transform="matrix(0.51442109,0,0,0.51442109,225.49972,-110.39015)" />
    <path
       transform="matrix(0.51442109,0,0,0.51442109,171.21401,-127.53301)"
       d="m 392.44427,277.5752 c 0,11.15784 -9.04522,20.20305 -20.20306,20.20305 -11.15784,0 -20.20306,-9.04521 -20.20306,-20.20305 0,-11.15784 9.04522,-20.20306 20.20306,-20.20306 11.15784,0 20.20306,9.04522 20.20306,20.20306 z"
       sodipodi:ry="20.203056"
       sodipodi:rx="20.203056"
       sodipodi:cy="277.5752"
       sodipodi:cx="372.24121"
       id="path5899"
       style="fill:#ffaf00;fill-opacity:1;stroke:#000000;stroke-width:1.20000005;stroke-miterlimit:4;stroke-opacity:1;stroke-dasharray:none;stroke-dashoffset:0"
       sodipodi:type="arc" />
    <path
       sodipodi:type="arc"
       style="fill:#ffaf00;fill-opacity:1;stroke:#000000;stroke-width:1.20000005;stroke-miterlimit:4;stroke-opacity:1;stroke-dasharray:none;stroke-dashoffset:0"
       id="path5903"
       sodipodi:cx="372.24121"
       sodipodi:cy="277.5752"
       sodipodi:rx="20.203056"
       sodipodi:ry="20.203056"
       d="m 392.44427,277.5752 c 0,11.15784 -9.04522,20.20305 -20.20306,20.20305 -11.15784,0 -20.20306,-9.04521 -20.20306,-20.20305 0,-11.15784 9.04522,-20.20306 20.20306,-20.20306 11.15784,0 20.20306,9.04522 20.20306,20.20306 z"
       transform="matrix(0.51442109,0,0,0.51442109,124.78544,-125.39015)" />
    <text
       xml:space="preserve"
       style="font-size:20px;font-style:normal;font-weight:normal;line-height:125%;letter-spacing:0px;word-spacing:0px;fill:#000000;fill-opacity:1;stroke:none;font-family:Sans"
       x="-198.57143"
       y="123.66721"
       id="text5905"
       sodipodi:linespacing="125%"
       transform="translate(128.58068,40.989259)"><tspan
         sodipodi:role="line"
         id="tspan5907"
         x="-198.57143"
         y="123.66721">A</tspan></text>
    <text
       sodipodi:linespacing="125%"
       id="text5909"
       y="164.65648"
       x="112.15211"
       style="font-size:20px;font-style:normal;font-weight:normal;line-height:125%;letter-spacing:0px;word-spacing:0px;fill:#000000;fill-opacity:1;stroke:none;font-family:Sans"
       xml:space="preserve"><tspan
         y="164.65648"
         x="112.15211"
         id="tspan5911"
         sodipodi:role="line">B</tspan></text>
    <text
       xml:space="preserve"
       style="font-size:20px;font-style:normal;font-weight:normal;line-height:125%;letter-spacing:0px;word-spacing:0px;fill:#000000;fill-opacity:1;stroke:none;font-family:Sans"
       x="287.1521"
       y="164.65648"
       id="text5913"
       sodipodi:linespacing="125%"><tspan
         sodipodi:role="line"
         id="tspan5915"
         x="287.1521"
         y="164.65648">C</tspan></text>
  </g>
</svg>
